<?xml version="1.0" encoding="UTF-8" standalone="no"?>
<svg
   xmlns:dc="http://purl.org/dc/elements/1.1/"
   xmlns:cc="http://creativecommons.org/ns#"
   xmlns:rdf="http://www.w3.org/1999/02/22-rdf-syntax-ns#"
   xmlns:svg="http://www.w3.org/2000/svg"
   xmlns="http://www.w3.org/2000/svg"
   xmlns:sodipodi="http://sodipodi.sourceforge.net/DTD/sodipodi-0.dtd"
   xmlns:inkscape="http://www.inkscape.org/namespaces/inkscape"
   inkscape:version="1.0 (4035a4f, 2020-05-01)"
   height="50"
   width="100.30749"
   sodipodi:docname="klap.svg"
   xml:space="preserve"
   viewBox="0 0 100.30749 50"
   y="0px"
   x="0px"
   id="Capa_1"
   version="1.1"><metadata
   id="metadata1037"><rdf:RDF><cc:Work
       rdf:about=""><dc:format>image/svg+xml</dc:format><dc:type
         rdf:resource="http://purl.org/dc/dcmitype/StillImage" /></cc:Work></rdf:RDF></metadata><defs
   id="defs1035" /><sodipodi:namedview
   inkscape:current-layer="Capa_1"
   inkscape:window-maximized="1"
   inkscape:window-y="23"
   inkscape:window-x="0"
   inkscape:cy="228.8"
   inkscape:cx="456.44999"
   inkscape:zoom="0.5"
   showgrid="false"
   id="namedview1033"
   inkscape:window-height="699"
   inkscape:window-width="1280"
   inkscape:pageshadow="2"
   inkscape:pageopacity="0"
   guidetolerance="10"
   gridtolerance="10"
   objecttolerance="10"
   borderopacity="1"
   bordercolor="#666666"
   pagecolor="#ffffff" />
<style
   id="style1016"
   type="text/css">
	.st0{fill:#00CE7C;}
	.st1{fill:#002B49;}
</style>
<g
   transform="matrix(0.1098177,0,0,0.1098177,-1.8229738,-8.2033822)"
   style="stroke-width:0;stroke-miterlimit:4;stroke-dasharray:none"
   id="g1030">
	<path
   style="stroke-width:0;stroke-miterlimit:4;stroke-dasharray:none"
   id="path1018"
   d="m 55.2,74.7 c -21.3,0 -38.6,17.6 -38.6,39.2 v 273.2 c 0,21.6 17.3,39.2 38.6,39.2 H 59 c 21.3,0 38.6,-17.6 38.6,-39.2 V 113.9 C 97.6,92.3 80.3,74.7 59,74.7 Z"
   class="st0" />
	<path
   style="stroke-width:0;stroke-miterlimit:4;stroke-dasharray:none"
   id="path1020"
   d="m 601.3,198.8 v 0 c -16.7,0 -30.8,11.5 -34.7,27.1 l -1.4,-1.7 c -11.8,-16.9 -29.7,-25.4 -53.7,-25.4 -32.9,0 -60.1,10.8 -81.5,32.3 -21.4,21.6 -32.1,50.2 -32.1,86 0,31.6 9.8,57.7 29.5,78.1 19.6,20.4 45.8,30.7 78.4,30.7 25.9,0 45,-10.2 57.5,-30.6 3.1,18.3 20.1,31.7 39.3,29.5 l 2.8,-0.3 c 18.1,-2.1 31.7,-17.4 31.7,-35.6 V 234.6 c 0,-19.8 -16,-35.8 -35.8,-35.8 m -52,148.3 c -8.5,8.8 -18.8,13.2 -30.9,13.2 -11.2,0 -20.4,-4.3 -27.8,-12.9 -7.3,-8.6 -11,-19.3 -11,-32.1 0,-15.7 3.8,-27.9 11.3,-36.7 7.5,-8.8 17.5,-13.2 30,-13.2 11.5,0 21.2,4.2 29.2,12.5 8,8.3 12,19.6 12,34 -0.1,14.7 -4.3,26.4 -12.8,35.2"
   class="st1" />
	<path
   style="stroke-width:0;stroke-miterlimit:4;stroke-dasharray:none"
   id="path1022"
   d="m 206.7,360.1 -51.3,-46 51.9,-47.8 c 15.3,-14.1 16.3,-38 2.2,-53.4 -14.1,-15.3 -38,-16.3 -53.4,-2.2 L 79.8,281 c -5.3,4.9 -8.8,10.9 -10.6,17.4 -9.6,13.2 -7.9,31.9 4.6,43.1 l 83,74.4 c 15.4,13.8 39,12.5 52.8,-2.9 13.8,-15.5 12.5,-39.2 -2.9,-52.9"
   class="st0" />
	<path
   style="stroke-width:0;stroke-miterlimit:4;stroke-dasharray:none"
   id="path1024"
   d="m 97.6,264.7 -39,35.6 c -8.3,7.6 -8.2,20.6 0.2,28 l 38.7,34.3 v -97.9 z"
   class="st1" />
	<path
   style="stroke-width:0;stroke-miterlimit:4;stroke-dasharray:none"
   id="path1026"
   d="m 310.6,77.8 c -21.3,0 -38.6,17.3 -38.6,38.6 v 268.8 c 0,21.3 17.3,38.6 38.6,38.6 h 3.7 c 21.3,0 38.6,-17.3 38.6,-38.6 V 116.4 c 0,-21.3 -17.3,-38.6 -38.6,-38.6 z"
   class="st1" />
	<path
   style="stroke-width:0;stroke-miterlimit:4;stroke-dasharray:none"
   id="path1028"
   d="m 901.9,228.7 c -18.7,-20.9 -44.2,-31.4 -76.4,-31.4 -13.1,0 -25.3,2.8 -36.7,8.4 -10.2,5 -18.2,11.8 -24.2,20.3 -4.5,-16.3 -19.3,-28.2 -37,-28.2 -21.2,0 -38.5,17.2 -38.5,38.5 v 255.2 c 0,21.2 17.2,38.5 38.5,38.5 21.2,0 38.5,-17.2 38.5,-38.5 v -84.2 c 10.9,13.1 27.2,19.6 48.9,19.6 34.2,0 61.9,-11 83.1,-33.1 21.2,-22 31.9,-49.8 31.9,-83.4 0,-33.6 -9.4,-60.7 -28.1,-81.7 m -62.3,117.5 c -7.8,9.4 -18,14.1 -30.4,14.1 -28.8,0 -43.1,-16.5 -43.1,-49.4 0,-13.7 4.4,-24.9 13.2,-33.5 8.8,-8.6 19.1,-12.9 30.9,-12.9 10.9,0 20.4,4.1 28.8,12.2 8.3,8.1 12.5,18.9 12.5,32.3 -0.1,15.4 -4,27.7 -11.9,37.2"
   class="st1" />
</g>
</svg>
